# xmcd CD database file
#
# Track frame offsets:
#	150
#	26041
#	44865
#	63915
#	87289
#	108637
#	129171
#	150916
#	172281
#	197249
#	211615
#	218931
#	237077
#
# Disc length: 3449 seconds
#
# Revision: 0
# Processed by: cddbd v1.5.2PL0 Copyright (c) Steve Scherf et al.
# Submitted via: CDex 1.51
#
DISCID=b60d770d
DTITLE=Gregor Hilden - In Phase
DYEAR=2015
DGENRE=Blues
TTITLE0=Mr. Magic
TTITLE1=In Phase
TTITLE2=On Flow
TTITLE3=Rock - Flow
TTITLE4=Desert Song
TTITLE5=Springtime
TTITLE6=Blues From The Outer Side
TTITLE7=Chitlins Con Carne
TTITLE8=Naylor`s Blues
TTITLE9=Greg`s Funk
TTITLE10='63"
TTITLE11=Fleetwood Mac
TTITLE12=Farewell Blues
EXTD=YEAR: 2015
EXTT0=
EXTT1=
EXTT2=
EXTT3=
EXTT4=
EXTT5=
EXTT6=
EXTT7=
EXTT8=
EXTT9=
EXTT10=
EXTT11=
EXTT12=
PLAYORDER=
